<?xml version="1.0" encoding="UTF-8" standalone="no"?>
<!DOCTYPE svg PUBLIC "-//W3C//DTD SVG 1.1//EN" "http://www.w3.org/Graphics/SVG/1.1/DTD/svg11.dtd">
<svg version="1.1" xmlns="http://www.w3.org/2000/svg" xmlns:xlink="http://www.w3.org/1999/xlink" preserveAspectRatio="xMidYMid meet" viewBox="0 0 2560 1440" width="2560" height="1440"><defs><path d="M1881.04 690.66C2015.73 628.98 2103.57 535.33 2025.22 460.29C1981.47 418.41 1874.01 388 1769.72 388C1687.5 388 1618.74 406.77 1581.1 439.51C1476.86 530.09 1635.77 633.94 1741.4 688.46C1676.67 708.91 1608.54 726.62 1541.67 745.62C1494.12 671.83 1404.46 620.47 1280 595.31C1247.18 588.67 1211.97 583.84 1174.49 580.91C1038.34 436.96 740.47 384.62 475.09 514.76C456.91 523.23 457.77 536.58 477.01 544.58C496.25 552.59 526.57 552.21 544.75 543.74C627.19 505.34 704.58 484.73 774.85 482.45C864.7 479.53 984.87 507.21 1061.73 573.23C944.46 568.55 804.69 575.24 696.82 627.08C549.38 695.48 570.09 811.13 751.33 863.44C795.9 876.92 845.02 883.48 893.46 883.48C1145.06 880.98 1251.08 723.54 1205.7 627.82C1228.45 631.13 1253.92 636.14 1279.99 643.74C1347.89 663.48 1419.73 700.71 1457.46 770.72C1412.25 784.8 1347.58 805.79 1279.99 830.91C1081.98 904.48 858.98 1013.47 1027.85 1087.66C1093.61 1113.83 1201.54 1111.91 1279.99 1097.83C1447.91 1069.51 1556.77 988.87 1572.82 902.13C1580.49 864.89 1577.35 826.31 1563.77 789.68C1645.61 765.71 1729 744.94 1808.95 719C1883.18 748.02 1962.26 764.84 2044.54 769.06C2070.78 770.39 2094.61 762.11 2097.68 750.53C2097.9 749.7 2098 748.88 2098 748.06C2098.01 737.51 2080.02 728.38 2055.6 727.13C1996.27 724.09 1937.7 711.84 1881.04 690.66ZM695.95 749.6C678.28 674.14 820.95 611.04 1001.78 614.32C1032.65 614.32 1065.97 615.54 1102.08 617.99C1145.12 685.13 1108.6 764.26 1013.38 814.6C892.09 878.16 709.34 815.78 695.95 749.6ZM1280 1051.27C1227.12 1063.65 1141.05 1074.98 1089.66 1055.38C1070.83 1048.4 1062.62 1038.51 1064.54 1025.17C1076.49 980.25 1173.5 929.86 1280 886.88C1347.81 859.52 1419.48 835.15 1475.46 817.12C1482.07 843.99 1482.81 871.92 1477.34 898.3C1464.59 962.96 1394.71 1023.87 1280 1051.27ZM1769.72 430.21C1837.33 430.21 1909.7 450.72 1938.11 477.94C1997.38 534.67 1921.88 610.54 1813.52 660.65C1767.61 636.91 1706.67 600.91 1671.4 561.82C1618.54 509.42 1636.76 430.91 1769.72 430.21Z" id="a1ueSfLTTB"></path><path d="M122.57 211.54C120.31 229.04 132.71 245.11 150.21 247.37C151.8 247.58 164.49 249.21 166.08 249.42C183.58 251.68 199.65 239.28 201.91 221.78C200.32 221.57 187.63 219.93 186.04 219.73C184.91 228.48 176.88 234.68 168.12 233.55C166.54 233.35 153.84 231.71 152.26 231.5C143.5 230.37 137.31 222.34 138.44 213.59C135.26 213.18 124.15 211.74 122.57 211.54Z" id="aSk4t7Mk9"></path><path d="M136.64 164.96C127.88 163.83 119.86 170.01 118.73 178.78C117.6 187.54 123.78 195.56 132.55 196.69C141.31 197.83 149.33 191.64 150.46 182.87C151.6 174.11 145.41 166.09 136.64 164.96Z" id="b37MssiDKf"></path><path d="M200.12 173.15C191.35 172.02 183.33 178.2 182.2 186.97C181.07 195.73 187.26 203.75 196.02 204.88C204.79 206.02 212.81 199.83 213.94 191.06C215.07 182.3 208.88 174.28 200.12 173.15Z" id="cJnlctPiu"></path><path d="M279.48 317.18C283.4 312.69 285.57 310.19 286.01 309.69C287.44 308.04 288.14 305.88 287.94 303.7C287.74 301.52 286.65 299.52 284.94 298.17C281.28 295.27 252 272.14 248.34 269.24C245.69 267.15 242.01 266.94 239.15 268.73C238.27 269.28 233.89 272.01 225.99 276.93C220.19 269.4 216.96 265.22 216.32 264.39C219.87 261.85 223.25 259.09 226.4 256.07C230.07 257.24 233.78 258.15 237.48 258.63C272.48 263.15 304.63 238.35 309.15 203.35C312.34 178.61 300.51 154.01 279.48 140.87C270.75 93.35 231.9 56.25 183.74 50.04C135.58 43.82 88.58 69.84 68.07 113.59C44.39 120.96 26.71 141.75 23.52 166.49C19 201.49 43.8 233.64 78.8 238.16C82.51 238.64 86.33 238.69 90.18 238.5C92.45 242.22 95.03 245.75 97.82 249.1C96.98 249.75 92.8 252.97 85.28 258.78C78.89 252.02 75.34 248.26 74.63 247.51C72.31 245.04 68.71 244.32 65.62 245.68C61.34 247.54 27.15 262.49 22.88 264.36C20.87 265.24 19.31 266.89 18.56 268.95C17.82 271.01 17.94 273.27 18.91 275.24C19.21 275.83 20.68 278.8 23.32 284.14C-8.88 301.4 -26.76 310.98 -30.34 312.9C-51.17 311.61 -69.75 326.72 -72.46 347.7C-75.28 369.58 -59.78 389.67 -37.91 392.49C-17.43 395.13 1.49 381.72 6.13 362.04C9.77 359.97 27.98 349.67 60.75 331.12L61.31 372.28C30.05 436.97 12.69 472.92 9.22 480.11C-1.34 481.47 -10.12 489.72 -11.55 500.75C-11.75 502.34 -13.39 515.04 -13.59 516.62C-14.16 521 -11.07 525.01 -6.68 525.58C2.84 526.81 79.01 536.64 88.53 537.87C92.91 538.43 96.92 535.34 97.48 530.96C97.89 527.78 101.17 502.39 101.58 499.22C102.01 495.85 100.28 492.75 97.47 491.21C99.2 487.63 107.85 469.73 123.42 437.51L143.73 440.13C150.61 475.25 154.43 494.76 155.2 498.66C152.09 499.44 149.62 502 149.18 505.36C148.78 508.53 145.5 533.92 145.09 537.1C144.52 541.48 147.61 545.49 152 546.06C161.52 547.28 237.69 557.11 247.21 558.34C251.6 558.91 255.6 555.81 256.17 551.43C256.37 549.84 258.01 537.15 258.22 535.56C259.64 524.53 253.24 514.32 243.38 510.33C241.85 502.49 234.17 463.32 220.37 392.81L231.36 353.14C258.34 379.4 273.33 393.99 276.33 396.91C275.82 417.11 290.72 434.89 311.2 437.54C333.07 440.36 353.16 424.86 355.99 402.98C358.69 382.01 344.56 362.67 324.09 358.63C318.14 353.1 303.27 339.29 279.48 317.18ZM263.04 361.65L250.99 349.92L268.97 329.27L280.31 339.8L263.04 361.65ZM75.71 128.07C78.16 127.48 80.2 125.76 81.18 123.44C97.97 84.1 139.3 60.44 181.69 65.91C224.08 71.38 258.04 104.75 264.29 147.06C264.66 149.56 266.19 151.74 268.4 152.94C285.81 162.32 295.8 181.75 293.28 201.3C289.83 228.07 264.53 246.86 237.91 242.43C245.52 231.32 250.75 218.36 252.59 204.12C253.2 199.36 258.11 161.27 258.73 156.51C259.29 152.13 256.21 148.12 251.82 147.55C247.85 147.04 216.11 142.95 212.15 142.43C194.64 140.18 182.25 124.11 184.5 106.6C185.07 102.22 181.98 98.21 177.59 97.64C173.21 97.08 169.2 100.18 168.64 104.55C166.38 122.06 150.31 134.46 132.8 132.2C128.84 131.68 97.1 127.59 93.13 127.08C88.75 126.51 84.74 129.61 84.18 133.99C83.56 138.75 78.65 176.83 78.03 181.59C76.19 195.84 77.96 209.71 82.5 222.39C55.63 219.93 35.94 195.31 39.39 168.54C41.91 148.99 56.51 132.73 75.71 128.07ZM99.02 143.97C118.06 146.43 128.64 147.79 130.76 148.07C147.3 150.2 162.98 143.61 173.18 131.86C180.06 145.81 193.56 156.17 210.1 158.3C212.21 158.58 222.79 159.94 241.84 162.4C238.76 186.2 237.06 199.42 236.72 202.07C231.64 241.44 195.47 269.34 156.1 264.26C116.72 259.18 88.82 223.01 93.9 183.64C94.58 178.35 96.29 165.13 99.02 143.97ZM154.05 280.13C171.19 282.34 187.78 279.36 202.39 272.54C203.06 273.4 206.37 277.7 212.34 285.44L148.2 325.42L96.31 270.47L109.21 260.52C127.68 272.12 142.62 278.66 154.05 280.13ZM27.93 331.31L16.78 305.79L30.42 298.49L42.57 323.03L27.93 331.31ZM-8.99 355.89C-10.68 369.01 -22.74 378.32 -35.86 376.62C-48.99 374.93 -58.29 362.87 -56.59 349.75C-54.9 336.62 -42.84 327.32 -29.72 329.02C-28.07 329.23 -26.38 328.92 -24.92 328.14C-23.08 327.15 -13.9 322.23 2.63 313.37L13.93 339.24L-5 349.95C-7.44 352.25 -8.77 354.22 -8.99 355.89ZM33.67 466.26L88.36 473.31L81.02 488.5L26.33 481.44L33.67 466.26ZM3.3 510.74C3.91 505.98 4.25 503.33 4.32 502.8C4.89 498.43 8.9 495.33 13.28 495.89C18.04 496.51 41.84 499.58 84.69 505.11L82.64 520.97L3.3 510.74ZM223.24 490.72L226.49 507.27L171.79 500.21L168.55 483.66L223.24 490.72ZM161.98 531.21L164.03 515.34C206.87 520.87 230.68 523.94 235.44 524.56C239.82 525.12 242.91 529.14 242.35 533.51C242.28 534.04 241.94 536.69 241.32 541.45L161.98 531.21ZM165.31 467.11C161.11 445.68 158.78 433.77 158.31 431.39C157.65 428.01 154.91 425.44 151.49 425C148.31 424.59 122.92 421.31 119.75 420.9C116.33 420.46 113.03 422.25 111.53 425.36C110.47 427.54 105.19 438.46 95.69 458.13L41 451.07L66.68 397.92L208.65 416.24L220 474.17L165.31 467.11ZM206.29 383.67C205.18 387.68 204.56 389.9 204.44 390.35C204.11 391.55 204.06 392.81 204.3 394.03C204.38 394.4 204.74 396.29 205.41 399.69L74.02 382.73C75.52 379.62 76.36 377.89 76.53 377.54C77.08 376.43 77.34 375.19 77.33 373.95C77.32 373.49 77.29 371.18 77.24 367.02L206.29 383.67ZM225.16 330.25C222.44 330.99 220.29 333.12 219.55 335.84C218.95 337.99 215.97 348.74 210.6 368.09L77.02 350.86C76.75 330.77 76.59 319.62 76.56 317.39C76.52 314.56 75 311.96 72.55 310.56C70.11 309.16 67.09 309.14 64.63 310.54C64.09 310.84 61.38 312.38 56.52 315.13L36.98 275.65L66.87 262.58C111.39 309.72 136.13 335.92 141.08 341.16C142.37 342.55 144.07 343.37 145.86 343.61C147.64 343.84 149.5 343.47 151.11 342.46C157.23 338.65 187.8 319.59 242.83 285.29L268.43 305.52L239.5 338.75L232.83 332.24C229.53 330.43 226.97 329.77 225.16 330.25ZM292.51 394.79C292.84 392.29 291.96 389.79 290.16 388.04C289.12 387.03 283.92 381.97 274.57 372.87L292.07 350.72C305.81 363.48 313.44 370.57 314.97 371.99C316.18 373.12 317.74 373.85 319.39 374.06C332.51 375.76 341.81 387.81 340.12 400.94C338.42 414.06 326.37 423.36 313.24 421.67C300.12 419.97 290.82 407.92 292.51 394.79Z" id="eDj3dtd5I"></path><path d="M355.4 1033.26C350.48 1032.05 311.18 1022.38 306.26 1021.17C303.76 1020.56 301.13 1021.18 299.17 1022.85C297.21 1024.52 296.17 1027.03 296.38 1029.58C296.51 1031.18 297.54 1043.94 297.67 1045.53C299.09 1063.12 314.54 1076.28 332.14 1074.86C349.73 1073.44 362.88 1057.98 361.46 1040.39C361.18 1036.95 358.74 1034.09 355.4 1033.26ZM313.22 1039.36C332.29 1044.05 342.88 1046.66 345 1047.18C343.27 1053.49 337.74 1058.35 330.85 1058.91C322.05 1059.62 314.32 1053.04 313.62 1044.25C313.56 1043.6 313.43 1041.97 313.22 1039.36Z" id="b1ITz9aVv8"></path><path d="M425.25 1035.24C425.12 1033.65 424.1 1020.89 423.97 1019.3C423.76 1016.74 422.34 1014.43 420.13 1013.1C417.93 1011.76 415.21 1011.58 412.85 1012.58C408.2 1014.56 370.95 1030.4 366.3 1032.38C363.13 1033.74 361.18 1036.95 361.46 1040.39C362.88 1057.98 378.34 1071.13 395.93 1069.71C413.52 1068.29 426.67 1052.83 425.25 1035.24ZM409.3 1036.53C410.01 1045.33 403.44 1053.05 394.64 1053.76C387.75 1054.32 381.51 1050.41 378.8 1044.46C380.8 1043.6 390.84 1039.33 408.91 1031.64C409.15 1034.57 409.28 1036.2 409.3 1036.53Z" id="fKNRCbZ2C"></path><path d="M397.21 1085.66C397.21 1085.66 397.21 1085.66 397.21 1085.66C397.99 1095.23 398.42 1100.55 398.5 1101.61C398.5 1101.61 398.5 1101.61 398.5 1101.61C360.23 1104.7 338.96 1106.41 334.71 1106.75C334.71 1106.75 334.71 1106.75 334.71 1106.75C333.94 1097.18 333.51 1091.87 333.42 1090.81C333.42 1090.81 333.42 1090.81 333.42 1090.81C371.7 1087.72 392.96 1086 397.21 1085.66Z" id="c3uQA1Xro"></path><path d="M490.35 1153.57C490.45 1153.17 490.5 1152.95 490.51 1152.91C491.09 1150.58 490.59 1148.12 489.15 1146.19C487.71 1144.28 485.49 1143.1 483.09 1143C479.04 1142.82 458.78 1141.93 422.31 1140.33C416.69 1133.22 413.57 1129.27 412.95 1128.48C419.91 1123.62 426.1 1117.8 431.37 1111.21C431.47 1112.38 432.22 1121.78 432.32 1122.96C432.52 1125.46 433.88 1127.72 436.01 1129.07C437.49 1130.01 439.23 1130.43 440.94 1130.29C441.68 1130.23 442.41 1130.07 443.11 1129.8C444.42 1129.31 454.93 1125.37 456.24 1124.88C484.85 1114.16 508.07 1093.17 521.63 1065.8C521.74 1065.58 522.6 1063.84 522.71 1063.62C523.35 1062.32 523.63 1060.87 523.51 1059.42C517.72 987.63 437.06 905.88 351.17 912.8C265.28 919.73 198.76 1013.36 204.55 1085.15C204.67 1086.59 205.17 1087.98 206.02 1089.16C206.16 1089.36 207.29 1090.94 207.43 1091.13C225.21 1115.99 251.49 1132.98 281.45 1138.98C282.82 1139.25 293.82 1141.46 295.19 1141.73C297.66 1142.23 300.21 1141.54 302.08 1139.87C303.96 1138.2 304.94 1135.75 304.74 1133.25C304.65 1132.07 303.89 1122.67 303.79 1121.49C310.05 1127.15 317.1 1131.91 324.75 1135.59C324.26 1136.47 321.81 1140.87 317.4 1148.79C281.66 1156.22 261.8 1160.34 257.83 1161.17C255.49 1161.65 253.48 1163.17 252.37 1165.29C251.26 1167.41 251.16 1169.92 252.1 1172.13C252.11 1172.18 252.2 1172.39 252.36 1172.76C218.84 1197.68 200.21 1211.52 196.49 1214.28C175.73 1217.21 160.53 1235.92 162.24 1257.1C164.01 1279.09 183.34 1295.53 205.32 1293.76C225.75 1292.11 241.4 1275.3 242.08 1255.28C246.83 1251.75 284.81 1223.53 289.56 1220C291.41 1224.9 294 1229.4 297.24 1233.36C297.91 1235.74 301.31 1247.64 307.42 1269.06L285.61 1367.54C284.36 1367.65 283.66 1367.7 283.52 1367.71C270.33 1368.78 260.46 1380.38 261.53 1393.56C261.65 1395.16 262.68 1407.92 262.81 1409.51C263.17 1413.91 267.03 1417.2 271.43 1416.84C281 1416.07 357.55 1409.9 367.12 1409.13C371.52 1408.77 374.81 1404.91 374.45 1400.51C374.19 1397.32 372.14 1371.8 371.88 1368.61C371.61 1365.24 369.26 1362.56 366.2 1361.63C367.15 1357.77 371.9 1338.46 380.46 1303.71L384.91 1303.35C398.93 1336.28 406.71 1354.58 408.27 1358.24C405.39 1359.64 403.5 1362.67 403.77 1366.04C404.03 1369.23 406.09 1394.75 406.35 1397.94C406.7 1402.34 410.56 1405.62 414.96 1405.27C424.53 1404.5 501.08 1398.32 510.65 1397.55C515.05 1397.2 518.34 1393.34 517.98 1388.93C517.86 1387.34 516.83 1374.58 516.7 1372.99C515.63 1359.8 504.04 1349.93 490.85 1350.99C490.71 1351 490.01 1351.06 488.76 1351.16L451.44 1257.44C454.04 1235.32 455.48 1223.03 455.77 1220.57C458.33 1216.15 460.16 1211.29 461.2 1206.15C466.46 1208.88 508.47 1230.65 513.72 1233.37C517.61 1253.02 535.75 1267.11 556.18 1265.46C578.17 1263.69 594.61 1244.36 592.84 1222.38C591.13 1201.2 573.13 1185.16 552.16 1185.6C543.92 1181.33 523.31 1170.65 490.35 1153.57ZM284.6 1123.29C282.15 1122.8 279.76 1122.15 277.38 1121.49C277.35 1121.46 277.15 1121.19 277.12 1121.16C267.3 1108.73 261.43 1093.81 260.16 1078.01C260 1076.05 259.21 1066.3 257.8 1048.75L241.85 1050.03C243.26 1067.59 244.05 1077.34 244.21 1079.29C245.1 1090.32 247.91 1100.97 252.37 1110.9C239.94 1103.6 229.02 1093.82 220.44 1081.82C220.43 1081.8 220.35 1081.7 220.34 1081.68C216.63 1017.38 276.02 934.92 352.46 928.75C428.9 922.59 500.73 994.47 507.37 1058.54C507.36 1058.56 507.3 1058.68 507.29 1058.69C500.75 1071.9 491.53 1083.31 480.44 1092.51C483.25 1081.99 484.32 1071.03 483.43 1060C483.27 1058.05 482.49 1048.3 481.07 1030.74L465.12 1032.03C466.54 1049.58 467.33 1059.33 467.48 1061.29C468.76 1077.08 465.36 1092.75 457.65 1106.61C457.63 1106.64 457.48 1106.93 457.46 1106.97C455.21 1108 452.96 1109.03 450.62 1109.9C450.41 1109.98 449.34 1110.38 447.42 1111.1C446.22 1096.18 445.55 1087.89 445.42 1086.23C449.59 1074.73 451.51 1062.22 450.46 1049.25C449.88 1042.08 445.25 984.66 444.67 977.49C444.46 974.84 442.94 972.47 440.64 971.17C438.34 969.86 435.52 969.78 433.14 970.96C432.73 971.16 429.46 972.79 429.05 972.99C407.08 983.91 383.53 990.45 359.08 992.42C358.79 992.45 356.42 992.64 356.13 992.66C331.68 994.63 307.39 991.95 283.95 984.7C283.51 984.57 280.02 983.49 279.59 983.35C277.05 982.57 274.29 983.1 272.22 984.76C270.15 986.42 269.03 989 269.24 991.64C269.82 998.82 274.45 1056.23 275.03 1063.41C276.08 1076.38 279.97 1088.42 285.93 1099.1C286.07 1100.75 286.74 1109.04 287.94 1123.96C285.93 1123.56 284.82 1123.34 284.6 1123.29ZM286.13 1002C309.37 1008.33 333.31 1010.55 357.4 1008.61C357.7 1008.59 360.07 1008.4 360.36 1008.37C384.45 1006.43 407.73 1000.4 429.66 990.42C430.14 996.44 434.02 1044.54 434.51 1050.55C437.7 1090.12 408.09 1124.91 368.53 1128.1C328.96 1131.3 294.17 1101.69 290.98 1062.12C290.01 1050.1 286.62 1008.01 286.13 1002ZM398.87 1136.47C399.32 1137.03 401.54 1139.84 405.53 1144.9L371.07 1159.57L334.7 1150.62C337.83 1144.99 339.57 1141.86 339.92 1141.23C349.42 1143.79 359.47 1144.89 369.82 1144.05C380.17 1143.22 389.91 1140.52 398.87 1136.47ZM369.83 1175.74C370.68 1175.95 371.54 1176.02 372.39 1175.95C373.25 1175.88 374.08 1175.68 374.88 1175.34C377.87 1174.07 392.84 1167.7 419.77 1156.24L472.64 1158.56L464.89 1190.05C462.73 1188.93 461.53 1188.3 461.29 1188.18C459.75 1179.52 456.03 1171.51 450.14 1164.85C448.95 1165.91 439.37 1174.4 438.17 1175.46C442.79 1180.67 445.53 1187.11 446.09 1194.08C447.51 1211.67 434.36 1227.13 416.76 1228.55C399.17 1229.97 383.71 1216.82 382.3 1199.23C381.94 1194.79 382.48 1190.42 383.92 1186.25C383.4 1186.07 379.2 1184.63 378.68 1184.45C378.1 1183.08 377.48 1181.73 376.77 1180.4C376.52 1180.54 375.23 1181.23 372.92 1182.47C370.44 1181.62 369.07 1181.15 368.79 1181.05C368.3 1182.47 367.91 1183.91 367.56 1185.36C367.07 1185.62 363.15 1187.71 362.66 1187.97C364.75 1191.85 365.99 1196.07 366.35 1200.51C367.77 1218.1 354.61 1233.56 337.02 1234.98C319.43 1236.4 303.97 1223.25 302.55 1205.66C301.99 1198.69 303.66 1191.89 307.38 1186.01C306.03 1185.15 295.21 1178.31 293.86 1177.46C289.11 1184.97 286.73 1193.47 286.6 1202.27C286.38 1202.43 285.3 1203.23 283.34 1204.69L270.65 1174.85L322.46 1164.08C350.88 1171.08 366.67 1174.96 369.83 1175.74ZM178.18 1255.82C177.2 1243.65 185.56 1232.95 197.2 1230.51C200.08 1232.96 223.09 1252.54 225.97 1254.98C225.42 1266.86 216.2 1276.83 204.04 1277.81C190.85 1278.87 179.25 1269.01 178.18 1255.82ZM212.37 1222.41L258.81 1187.9L270.12 1214.49L234.33 1241.1L212.37 1222.41ZM364.73 1300.66L354.2 1343.46L309.32 1334.47L321.32 1280.3L364.73 1300.66ZM350.36 1359.02L349.54 1362.39L302.29 1366.2L305.86 1350.09L350.36 1359.02ZM278.12 1400.25C277.73 1395.47 277.52 1392.81 277.47 1392.28C277.12 1387.88 280.41 1384.02 284.81 1383.66C289.59 1383.28 313.51 1381.35 356.57 1377.87L357.86 1393.82L278.12 1400.25ZM322.37 1263.12C319.81 1254.15 318.39 1249.17 318.1 1248.17C324.39 1250.46 331.22 1251.5 338.31 1250.93C354.94 1249.59 368.91 1239.87 376.45 1226.26C386.07 1238.49 401.42 1245.84 418.05 1244.5C425.14 1243.93 431.72 1241.8 437.55 1238.53C437.43 1239.56 436.83 1244.7 435.74 1253.96L387.26 1287.11L375.53 1288.06L322.37 1263.12ZM501.39 1382.25L421.65 1388.68L420.37 1372.73C463.43 1369.26 487.35 1367.33 492.13 1366.94C496.53 1366.59 500.4 1369.88 500.75 1374.27C500.84 1375.34 501.05 1377.99 501.39 1382.25ZM423.46 1353.12L465.97 1337.18L472.08 1352.51L424.83 1356.32L423.46 1353.12ZM417.19 1338.38L399.94 1297.82L439.53 1270.76L460.05 1322.31L417.19 1338.38ZM486.42 1169.55L537.79 1196.17L519.1 1218.14L479.51 1197.62L486.42 1169.55ZM529.59 1230.5C532.04 1227.62 551.61 1204.61 554.06 1201.73C565.94 1202.28 575.91 1211.5 576.89 1223.66C577.95 1236.85 568.09 1248.45 554.9 1249.52C542.73 1250.5 532.03 1242.14 529.59 1230.5Z" id="c128f0dcgB"></path><path d="M2422.06 205.25C2419.34 168.7 2398.37 138.01 2369.55 124.94C2343.27 81.91 2299.5 53.66 2250.01 53.66C2200.51 53.66 2156.75 81.9 2130.46 124.93C2101.64 138 2080.69 168.68 2077.96 205.25C2077.67 205.25 2075.4 205.25 2075.12 205.25C2071.19 205.25 2068 208.88 2068 213.34C2068 217.8 2071.19 221.43 2075.12 221.43C2075.4 221.43 2077.67 221.43 2077.96 221.43C2080.15 250.85 2094.12 276.52 2114.53 292.22C2116.54 306.89 2132.68 424.19 2134.69 438.86C2135.23 442.79 2138.22 445.71 2141.73 445.71C2147.07 445.71 2189.78 445.71 2195.12 445.71C2199.05 445.71 2202.24 442.09 2202.24 437.62C2202.24 407.69 2223.67 383.36 2250 383.36C2276.34 383.36 2297.77 407.71 2297.77 437.62C2297.77 442.09 2300.96 445.71 2304.89 445.71C2310.23 445.71 2352.94 445.71 2358.28 445.71C2361.77 445.71 2364.76 442.8 2365.3 438.86C2367.31 424.19 2383.45 306.89 2385.47 292.22C2405.88 276.51 2419.84 250.85 2422.03 221.43C2422.32 221.43 2424.59 221.43 2424.88 221.43C2428.8 221.43 2432 217.8 2432 213.34C2432.01 208.88 2428.83 205.25 2424.9 205.25C2424.33 205.25 2422.34 205.25 2422.06 205.25ZM2347 118.59C2344.24 118.28 2341.43 118.11 2338.6 118.11C2294.79 118.11 2258.78 156.52 2255.14 205.23C2254.11 205.23 2245.89 205.23 2244.86 205.23C2241.23 156.52 2205.21 118.11 2161.4 118.11C2158.57 118.11 2155.77 118.28 2153.01 118.6C2177.04 88.67 2211.63 69.84 2250.01 69.84C2288.38 69.84 2322.98 88.66 2347 118.59ZM2372.44 282.35C2362.41 288.74 2350.89 292.38 2338.6 292.38C2300.24 292.38 2269.03 256.93 2269.03 213.34C2269.03 169.75 2300.24 134.3 2338.6 134.3C2346.19 134.3 2353.46 135.74 2360.29 138.28C2373.44 161.39 2381.14 188.84 2381.24 218.32C2379.48 231.12 2373.32 275.94 2372.44 282.35ZM2139.73 138.28C2146.56 135.73 2153.84 134.3 2161.42 134.3C2199.78 134.3 2230.99 169.75 2230.99 213.34C2230.99 256.92 2199.78 292.38 2161.42 292.38C2149.14 292.38 2137.61 288.7 2127.59 282.35C2127 278.08 2124.07 256.74 2118.78 218.32C2123.99 180.36 2130.97 153.69 2139.73 138.28ZM2116.71 152.86C2108.9 173.11 2104.54 195.44 2104.54 218.93C2104.54 219.35 2104.57 219.77 2104.63 220.17C2105.29 224.94 2110.53 263.1 2111.19 267.87C2099.23 253.67 2091.85 234.49 2091.85 213.34C2091.85 189.09 2101.53 167.38 2116.71 152.86ZM2311.61 429.53C2308.07 394.48 2281.79 367.18 2250 367.18C2218.21 367.18 2191.95 394.48 2188.41 429.53C2185.7 429.53 2172.17 429.53 2147.82 429.53C2137.27 352.8 2131.41 310.18 2130.24 301.65C2139.88 306.06 2150.39 308.55 2161.41 308.55C2205.22 308.55 2241.23 270.14 2244.86 221.42C2245.89 221.42 2254.12 221.42 2255.15 221.42C2258.78 270.14 2294.8 308.55 2338.6 308.55C2349.62 308.55 2360.13 306.06 2369.77 301.65C2368.59 310.18 2362.73 352.8 2352.19 429.53C2327.84 429.53 2314.31 429.53 2311.61 429.53ZM2395.4 220.17C2395.46 219.76 2395.49 219.34 2395.49 218.93C2395.49 195.45 2391.13 173.11 2383.33 152.86C2398.51 167.36 2408.2 189.08 2408.2 213.33C2408.19 234.49 2400.79 253.67 2388.85 267.87C2390.16 258.33 2394.75 224.94 2395.4 220.17Z" id="cuD1VHAN2"></path><path d="M2161.42 148.48C2145.47 148.48 2132.49 163.21 2132.49 181.35C2132.49 199.46 2145.46 214.21 2161.42 214.21C2177.37 214.21 2190.35 199.47 2190.35 181.35C2190.35 163.23 2177.37 148.48 2161.42 148.48ZM2156.39 196.97C2165.86 196.12 2173.36 187.2 2173.36 176.23C2173.36 174.31 2173.06 172.48 2172.62 170.71C2174.76 173.61 2176.1 177.3 2176.1 181.37C2176.11 190.55 2169.51 198.03 2161.41 198.03C2159.64 198.03 2157.96 197.61 2156.39 196.97ZM2154.96 180.95C2152.67 180.95 2150.8 178.82 2150.8 176.22C2150.8 173.62 2152.67 171.49 2154.96 171.49C2157.25 171.49 2159.12 173.62 2159.12 176.22C2159.12 178.82 2157.25 180.95 2154.96 180.95Z" id="e21QCyoWB2"></path><path d="M2332.83 214.21C2348.78 214.21 2361.76 199.48 2361.76 181.35C2361.76 163.22 2348.79 148.48 2332.83 148.48C2316.87 148.48 2303.9 163.23 2303.9 181.35C2303.9 199.46 2316.87 214.21 2332.83 214.21ZM2326.38 171.49C2328.67 171.49 2330.54 173.62 2330.54 176.22C2330.54 178.82 2328.67 180.95 2326.38 180.95C2324.08 180.95 2322.22 178.82 2322.22 176.22C2322.22 173.62 2324.09 171.49 2326.38 171.49ZM2327.8 196.97C2337.28 196.12 2344.76 187.2 2344.76 176.23C2344.76 174.31 2344.46 172.48 2344.04 170.7C2346.18 173.6 2347.51 177.29 2347.51 181.36C2347.52 190.55 2340.93 198.03 2332.83 198.03C2331.06 198.03 2329.38 197.61 2327.8 196.97Z" id="baUm1LvWe"></path><path d="M2246.68 313.35C2242.76 313.35 2239.56 316.98 2239.56 321.44C2239.56 325.9 2242.76 329.53 2246.68 329.53C2250.74 329.53 2283.23 329.53 2287.29 329.53C2291.22 329.53 2294.41 325.9 2294.41 321.44C2294.41 316.98 2291.23 313.35 2287.29 313.35C2279.17 313.35 2250.74 313.35 2246.68 313.35Z" id="a1gyGaAiX5"></path><path d="M2361.96 1423.01C2366.61 1430.16 2381.48 1428.01 2384.27 1420.86C2395.42 1390.11 2409.37 1352.92 2407.51 1321.45C2407.51 1314.3 2397.28 1312.87 2391.71 1316.44C2390.78 1315.73 2388.92 1315.73 2387.06 1315.73C2376.83 1316.44 2366.61 1317.87 2357.31 1318.59C2323.85 1253.51 2296.89 1140.51 2425.17 1133.36C2438.18 1132.64 2448.41 1134.79 2455.84 1139.08C2438.18 1150.52 2423.31 1164.82 2415.87 1181.27C2405.65 1202.73 2426.1 1248.5 2464.21 1235.63C2494.88 1224.9 2501.39 1181.99 2495.82 1160.53C2493.96 1154.1 2491.17 1148.37 2488.38 1143.37C2491.17 1141.94 2493.03 1141.22 2495.82 1139.79C2519.98 1129.06 2548.8 1124.06 2576.69 1124.77C2597.14 1125.49 2609.22 1134.07 2616.66 1145.51C2591.56 1155.52 2571.11 1171.26 2565.53 1187.71C2554.38 1222.75 2612.94 1245.64 2637.11 1211.31C2648.26 1195.57 2650.12 1173.4 2643.61 1154.09C2644.54 1153.38 2646.4 1153.38 2647.33 1152.66C2727.27 1127.63 2751.44 1205.59 2705.89 1244.21C2702.18 1247.78 2706.82 1253.5 2712.4 1250.64C2767.24 1220.61 2762.6 1156.24 2699.39 1135.5C2682.66 1129.78 2658.49 1131.92 2636.18 1137.64C2625.95 1121.91 2609.22 1109.75 2585.05 1107.61C2548.8 1104.03 2506.97 1111.9 2473.51 1127.63C2453.99 1115.47 2426.1 1112.61 2397.28 1117.62C2275.51 1136.21 2297.82 1250.64 2333.14 1318.59C2323.85 1319.3 2315.48 1319.3 2306.19 1319.3C2297.82 1319.31 2291.31 1327.89 2295.96 1333.61C2318.27 1363.65 2341.51 1392.25 2361.96 1423.01ZM2625.95 1176.98C2625.95 1184.85 2624.09 1192.72 2621.3 1199.87C2614.8 1217.03 2575.75 1211.31 2587.84 1188.43C2595.27 1177.7 2609.22 1168.4 2624.09 1161.96C2625.02 1166.97 2625.95 1171.98 2625.95 1176.98ZM2451.2 1220.61C2436.32 1221.32 2436.32 1189.86 2437.25 1184.85C2440.97 1171.26 2453.98 1159.82 2469.79 1151.23C2474.43 1158.39 2476.29 1166.26 2476.29 1174.12C2476.29 1184.13 2470.71 1219.89 2451.2 1220.61ZM2326.64 1337.19C2346.16 1335.04 2365.68 1332.18 2384.27 1328.6C2375.9 1347.91 2372.18 1370.08 2367.54 1391.54C2354.52 1372.94 2340.58 1355.06 2326.64 1337.19Z" id="c13USkSjBb"></path></defs><g><g><g><use xlink:href="#a1ueSfLTTB" opacity="1" fill="#05f9ff" fill-opacity="0.12"></use><g><use xlink:href="#a1ueSfLTTB" opacity="1" fill-opacity="0" stroke="#000000" stroke-width="1" stroke-opacity="0"></use></g></g><g><use xlink:href="#aSk4t7Mk9" opacity="1" fill="#05f9ff" fill-opacity="0.12"></use><g><use xlink:href="#aSk4t7Mk9" opacity="1" fill-opacity="0" stroke="#000000" stroke-width="1" stroke-opacity="0"></use></g></g><g><use xlink:href="#b37MssiDKf" opacity="1" fill="#05f9ff" fill-opacity="0.12"></use><g><use xlink:href="#b37MssiDKf" opacity="1" fill-opacity="0" stroke="#000000" stroke-width="1" stroke-opacity="0"></use></g></g><g><use xlink:href="#cJnlctPiu" opacity="1" fill="#05f9ff" fill-opacity="0.12"></use><g><use xlink:href="#cJnlctPiu" opacity="1" fill-opacity="0" stroke="#000000" stroke-width="1" stroke-opacity="0"></use></g></g><g><use xlink:href="#eDj3dtd5I" opacity="1" fill="#05f9ff" fill-opacity="0.12"></use><g><use xlink:href="#eDj3dtd5I" opacity="1" fill-opacity="0" stroke="#000000" stroke-width="1" stroke-opacity="0"></use></g></g><g><use xlink:href="#b1ITz9aVv8" opacity="1" fill="#05f9ff" fill-opacity="0.12"></use><g><use xlink:href="#b1ITz9aVv8" opacity="1" fill-opacity="0" stroke="#000000" stroke-width="1" stroke-opacity="0"></use></g></g><g><use xlink:href="#fKNRCbZ2C" opacity="1" fill="#05f9ff" fill-opacity="0.12"></use><g><use xlink:href="#fKNRCbZ2C" opacity="1" fill-opacity="0" stroke="#000000" stroke-width="1" stroke-opacity="0"></use></g></g><g><use xlink:href="#c3uQA1Xro" opacity="1" fill="#05f9ff" fill-opacity="0.12"></use><g><use xlink:href="#c3uQA1Xro" opacity="1" fill-opacity="0" stroke="#000000" stroke-width="1" stroke-opacity="0"></use></g></g><g><use xlink:href="#c128f0dcgB" opacity="1" fill="#05f9ff" fill-opacity="0.12"></use><g><use xlink:href="#c128f0dcgB" opacity="1" fill-opacity="0" stroke="#000000" stroke-width="1" stroke-opacity="0"></use></g></g><g><use xlink:href="#cuD1VHAN2" opacity="1" fill="#05f9ff" fill-opacity="0.12"></use><g><use xlink:href="#cuD1VHAN2" opacity="1" fill-opacity="0" stroke="#000000" stroke-width="1" stroke-opacity="0"></use></g></g><g><use xlink:href="#e21QCyoWB2" opacity="1" fill="#05f9ff" fill-opacity="0.12"></use><g><use xlink:href="#e21QCyoWB2" opacity="1" fill-opacity="0" stroke="#000000" stroke-width="1" stroke-opacity="0"></use></g></g><g><use xlink:href="#baUm1LvWe" opacity="1" fill="#05f9ff" fill-opacity="0.12"></use><g><use xlink:href="#baUm1LvWe" opacity="1" fill-opacity="0" stroke="#000000" stroke-width="1" stroke-opacity="0"></use></g></g><g><use xlink:href="#a1gyGaAiX5" opacity="1" fill="#05f9ff" fill-opacity="0.12"></use><g><use xlink:href="#a1gyGaAiX5" opacity="1" fill-opacity="0" stroke="#000000" stroke-width="1" stroke-opacity="0"></use></g></g><g><use xlink:href="#c13USkSjBb" opacity="1" fill="#05f9ff" fill-opacity="0.12"></use><g><use xlink:href="#c13USkSjBb" opacity="1" fill-opacity="0" stroke="#000000" stroke-width="1" stroke-opacity="0"></use></g></g></g></g></svg>