<?xml version="1.0" encoding="iso-8859-1"?>
<!-- Generator: Adobe Illustrator 19.0.0, SVG Export Plug-In . SVG Version: 6.00 Build 0)  -->
<svg version="1.1" id="Layer_1" xmlns="http://www.w3.org/2000/svg" xmlns:xlink="http://www.w3.org/1999/xlink" x="0px" y="0px"
	 viewBox="0 0 512 512" style="enable-background:new 0 0 512 512;" xml:space="preserve">
<g>
	<g>
		<path d="M495.295,372.934c-9.222,0-16.705,7.477-16.705,16.705c0,9.211-7.494,16.705-16.705,16.705h-27.559v-34.067
			c16.713-2.157,32.179-9.729,44.307-21.893c14.573-14.606,22.567-33.997,22.513-54.595c-0.003-1.409,0.318-6.965-0.556-10.442
			c-5.62-81.545-73.672-146.28-156.575-146.28h-9.918v-33.41h150.344c9.222,0,16.705-7.477,16.705-16.705
			c0-9.228-7.483-16.705-16.705-16.705H150.344c-9.222,0-16.705,7.477-16.705,16.705c0,9.228,7.483,16.705,16.705,16.705h150.344
			v33.41H33.41v-16.705c0-9.228-7.483-16.705-16.705-16.705C7.483,105.657,0,113.134,0,122.362c0,10.98,0,90.193,0,100.229
			c0,9.227,7.483,16.704,16.705,16.704c9.222,0,16.705-7.477,16.705-16.705v-12.014l154.39,38.599c0.011,0,0.011,0,0.011,0.006
			c7.449,1.854,12.648,8.521,12.648,16.199c0,44.896,27.653,83.45,66.82,99.537v41.427h-50.115c-9.222,0-16.705,7.477-16.705,16.705
			s7.483,16.705,16.705,16.705h244.722c27.634,0,50.115-22.48,50.115-50.115C512,380.411,504.517,372.934,495.295,372.934z
			 M334.098,172.475h9.918c60.122,0,110.377,43.236,121.405,100.229H350.802c-9.211,0-16.705-7.494-16.705-16.705V172.475z
			 M400.917,406.343H300.688V372.68c2.42,0.164,4.859,0.254,7.319,0.254h92.91V406.343z"/>
	</g>
</g>
<g>
</g>
<g>
</g>
<g>
</g>
<g>
</g>
<g>
</g>
<g>
</g>
<g>
</g>
<g>
</g>
<g>
</g>
<g>
</g>
<g>
</g>
<g>
</g>
<g>
</g>
<g>
</g>
<g>
</g>
</svg>
